<svg width="1360" height="485" viewBox="0 0 1360 485" fill="none" xmlns="http://www.w3.org/2000/svg">
<rect width="1360" height="97" fill="url(#paint0_linear_35_1120)"/>
<path d="M126.57 93V83.38H154.39V12.14L127.87 17.34V7.72L155.43 1.99999H165.57V83.38H192.09V93H126.57ZM245.64 94.3C223.41 94.3 211.84 80.26 211.84 47.5C211.84 14.87 223.41 0.699995 245.64 0.699995C267.74 0.699995 279.44 14.87 279.44 47.5C279.44 80.13 267.74 94.3 245.64 94.3ZM223.54 47.5C223.54 57.12 224.45 64.53 226.27 70.12L258.77 14.74C255.39 11.62 250.97 10.32 245.64 10.32C231.08 10.32 223.54 20.2 223.54 47.5ZM245.64 84.81C260.07 84.81 267.61 74.93 267.61 47.5C267.61 37.36 266.57 29.69 264.62 23.97L231.73 79.61C235.24 83.25 239.92 84.81 245.64 84.81ZM332.73 94.3C310.5 94.3 298.93 80.26 298.93 47.5C298.93 14.87 310.5 0.699995 332.73 0.699995C354.83 0.699995 366.53 14.87 366.53 47.5C366.53 80.13 354.83 94.3 332.73 94.3ZM310.63 47.5C310.63 57.12 311.54 64.53 313.36 70.12L345.86 14.74C342.48 11.62 338.06 10.32 332.73 10.32C318.17 10.32 310.63 20.2 310.63 47.5ZM332.73 84.81C347.16 84.81 354.7 74.93 354.7 47.5C354.7 37.36 353.66 29.69 351.71 23.97L318.82 79.61C322.33 83.25 327.01 84.81 332.73 84.81ZM447.77 51.53H424.11V75.19H415.4V51.53H391.87V42.95H415.4V19.29H424.11V42.95H447.77V51.53Z" fill="black"/>
<rect x="476.5" y="29" width="173" height="39" rx="19.5" stroke="black"/>
<path d="M500.34 55.5L501.92 51.94L496.82 41.5H498.82L502.82 49.86L506.48 41.5H508.34L502.2 55.5H500.34ZM511.098 46.32V41.5H512.898V46C512.898 48.14 513.798 48.66 515.778 48.66C516.938 48.66 518.158 48.38 519.198 47.94V41.5H520.998V55.5H519.198V49.54C518.158 49.94 516.738 50.24 515.398 50.24C512.618 50.24 511.098 49.18 511.098 46.32ZM533.437 55.5L532.217 51.62H526.737L525.517 55.5H523.757L528.237 41.5H530.757L535.237 55.5H533.437ZM527.197 50.14H531.737L529.477 42.94L527.197 50.14ZM537.595 48.52C537.595 43.62 539.495 41.3 543.175 41.3C546.415 41.3 548.115 43.12 548.335 46.62H546.515C546.395 44.04 545.235 42.78 543.175 42.78C540.695 42.78 539.455 44.52 539.455 48.52C539.455 52.5 540.695 54.22 543.175 54.22C545.355 54.22 546.435 52.84 546.515 50.28H548.335C548.115 53.86 546.335 55.7 543.175 55.7C539.495 55.7 537.595 53.42 537.595 48.52ZM555.374 55.5V43H550.694V41.5H561.854V43H557.174V55.5H555.374ZM564.592 55.5V41.5H566.392V47.5H572.992V41.5H574.792V55.5H572.992V49H566.392V55.5H564.592ZM586.331 55.5V43.14L580.711 55.5H578.191V41.5H579.871V53.82L585.471 41.5H587.991V55.5H586.331ZM591.769 55.5V41.5H593.569V47.5H596.729L599.969 41.5H601.969L598.329 48.16L602.149 55.5H600.149L596.769 49.02H593.569V55.5H591.769ZM609.908 55.7C606.168 55.7 604.188 53.44 604.188 48.52C604.188 43.6 606.168 41.3 609.908 41.3C613.608 41.3 615.588 43.58 615.588 48.5C615.588 53.44 613.608 55.7 609.908 55.7ZM609.908 54.22C612.448 54.22 613.728 52.5 613.728 48.5C613.728 44.5 612.448 42.78 609.908 42.78C607.348 42.78 606.048 44.5 606.048 48.52C606.048 52.52 607.348 54.22 609.908 54.22ZM618.786 55.5V41.5H624.106C626.646 41.5 628.086 42.74 628.086 45.06C628.086 46.66 627.406 47.82 625.946 48.3C627.766 48.68 628.626 49.86 628.626 51.78C628.626 54.18 627.166 55.5 624.386 55.5H618.786ZM624.006 42.94H620.546V47.68H624.006C625.466 47.68 626.326 46.86 626.326 45.34C626.326 43.78 625.506 42.94 624.006 42.94ZM624.306 49.12H620.546V54.06H624.306C625.986 54.06 626.766 53.24 626.766 51.66C626.766 50 625.946 49.12 624.306 49.12Z" fill="black"/>
<rect y="97" width="1360" height="97" fill="url(#paint1_linear_35_1120)"/>
<path d="M816.57 191V181.38H844.39V110.14L817.87 115.34V105.72L845.43 100H855.57V181.38H882.09V191H816.57ZM935.77 192.3C915.62 192.3 904.05 183.46 904.05 166.69H915.36C915.36 177.09 922.51 182.68 936.03 182.68C950.33 182.68 957.61 175.27 957.61 161.23C957.61 146.8 950.72 139.26 937.33 139.26C926.54 139.26 920.82 142.51 917.05 149.92L907.17 148.36L910.03 100H965.93V109.62H919.78L917.83 137.83C922.64 132.63 929.14 129.9 939.02 129.9C958.78 129.9 969.44 140.82 969.44 161.1C969.44 181.64 956.96 192.3 935.77 192.3ZM1050.68 149.53H1027.02V173.19H1018.31V149.53H994.78V140.95H1018.31V117.29H1027.02V140.95H1050.68V149.53Z" fill="black"/>
<rect x="1079.5" y="126" width="147" height="39" rx="19.5" stroke="black"/>
<path d="M1099.72 155.7V151H1100.82C1101.82 149.66 1102.1 148.06 1102.16 142.36L1102.2 138.5H1110.1V151H1111.7V155.7H1110.02V152.5H1101.38V155.7H1099.72ZM1103.8 142.32C1103.76 145.2 1103.68 147.1 1103.46 148.48C1103.28 149.58 1103.04 150.34 1102.66 151H1108.4V140H1103.82L1103.8 142.32ZM1119.12 152.7C1115.38 152.7 1113.4 150.44 1113.4 145.52C1113.4 140.6 1115.38 138.3 1119.12 138.3C1122.82 138.3 1124.8 140.58 1124.8 145.5C1124.8 150.44 1122.82 152.7 1119.12 152.7ZM1119.12 151.22C1121.66 151.22 1122.94 149.5 1122.94 145.5C1122.94 141.5 1121.66 139.78 1119.12 139.78C1116.56 139.78 1115.26 141.5 1115.26 145.52C1115.26 149.52 1116.56 151.22 1119.12 151.22ZM1127.78 152.5V138.5H1129.58V144.5H1132.74L1135.98 138.5H1137.98L1134.34 145.16L1138.16 152.5H1136.16L1132.78 146.02H1129.58V152.5H1127.78ZM1139.78 151H1140.4C1141.72 151 1142.2 149.66 1142.24 146.16L1142.34 138.5H1150.94V152.5H1149.14V140H1144.08L1144 146.04C1143.94 151.16 1142.84 152.56 1140.76 152.56C1140.46 152.56 1140.06 152.56 1139.78 152.54V151ZM1163.23 152.5L1162.01 148.62H1156.53L1155.31 152.5H1153.55L1158.03 138.5H1160.55L1165.03 152.5H1163.23ZM1156.99 147.14H1161.53L1159.27 139.94L1156.99 147.14ZM1166.71 155.7V151H1167.81C1168.81 149.66 1169.09 148.06 1169.15 142.36L1169.19 138.5H1177.09V151H1178.69V155.7H1177.01V152.5H1168.37V155.7H1166.71ZM1170.79 142.32C1170.75 145.2 1170.67 147.1 1170.45 148.48C1170.27 149.58 1170.03 150.34 1169.65 151H1175.39V140H1170.81L1170.79 142.32ZM1186.11 152.7C1182.37 152.7 1180.39 150.44 1180.39 145.52C1180.39 140.6 1182.37 138.3 1186.11 138.3C1189.81 138.3 1191.79 140.58 1191.79 145.5C1191.79 150.44 1189.81 152.7 1186.11 152.7ZM1186.11 151.22C1188.65 151.22 1189.93 149.5 1189.93 145.5C1189.93 141.5 1188.65 139.78 1186.11 139.78C1183.55 139.78 1182.25 141.5 1182.25 145.52C1182.25 149.52 1183.55 151.22 1186.11 151.22ZM1194.99 152.5V138.5H1200.31C1202.85 138.5 1204.29 139.74 1204.29 142.06C1204.29 143.66 1203.61 144.82 1202.15 145.3C1203.97 145.68 1204.83 146.86 1204.83 148.78C1204.83 151.18 1203.37 152.5 1200.59 152.5H1194.99ZM1200.21 139.94H1196.75V144.68H1200.21C1201.67 144.68 1202.53 143.86 1202.53 142.34C1202.53 140.78 1201.71 139.94 1200.21 139.94ZM1200.51 146.12H1196.75V151.06H1200.51C1202.19 151.06 1202.97 150.24 1202.97 148.66C1202.97 147 1202.15 146.12 1200.51 146.12Z" fill="black"/>
<rect y="194" width="1360" height="97" fill="url(#paint2_linear_35_1120)"/>
<path d="M534.75 263.17C534.75 280.85 523.57 289.3 501.73 289.3C479.24 289.3 469.49 279.94 469.49 261.61H480.67C480.67 273.83 487.17 279.94 501.73 279.94C516.03 279.94 523.18 274.48 523.18 262.39C523.18 251.47 518.37 245.75 505.37 245.75H491.59V236.13H505.11C516.55 236.13 521.23 229.76 521.23 220.27C521.23 210.13 514.99 205.06 502.38 205.06C488.21 205.06 481.84 211.3 481.84 223.52H470.79C470.79 205.19 481.45 195.7 502.51 195.7C521.75 195.7 532.67 203.89 532.67 219.88C532.67 229.89 527.34 237.04 518.37 240.42C528.77 243.15 534.75 250.43 534.75 263.17Z" fill="black"/>
<rect x="560.5" y="223" width="120" height="39" rx="19.5" stroke="black"/>
<path d="M581.4 242.52C581.4 237.62 583.3 235.3 586.98 235.3C590.22 235.3 591.92 237.12 592.14 240.62H590.32C590.2 238.04 589.04 236.78 586.98 236.78C584.5 236.78 583.26 238.52 583.26 242.52C583.26 246.5 584.5 248.22 586.98 248.22C589.16 248.22 590.24 246.84 590.32 244.28H592.14C591.92 247.86 590.14 249.7 586.98 249.7C583.3 249.7 581.4 247.42 581.4 242.52ZM595.798 249.5V235.5H604.858V237H597.598V241.54H604.298V243.04H597.598V248H605.078V249.5H595.798ZM608.197 242.52C608.197 237.62 610.097 235.3 613.777 235.3C617.017 235.3 618.717 237.12 618.937 240.62H617.117C616.997 238.04 615.837 236.78 613.777 236.78C611.297 236.78 610.057 238.52 610.057 242.52C610.057 246.5 611.297 248.22 613.777 248.22C615.957 248.22 617.037 246.84 617.117 244.28H618.937C618.717 247.86 616.937 249.7 613.777 249.7C610.097 249.7 608.197 247.42 608.197 242.52ZM621.595 242.52C621.595 237.62 623.495 235.3 627.175 235.3C630.415 235.3 632.115 237.12 632.335 240.62H630.515C630.395 238.04 629.235 236.78 627.175 236.78C624.695 236.78 623.455 238.52 623.455 242.52C623.455 246.5 624.695 248.22 627.175 248.22C629.355 248.22 630.435 246.84 630.515 244.28H632.335C632.115 247.86 630.335 249.7 627.175 249.7C623.495 249.7 621.595 247.42 621.595 242.52ZM643.534 249.5V237.14L637.914 249.5H635.394V235.5H637.074V247.82L642.674 235.5H645.194V249.5H643.534ZM656.932 249.5V237.14L651.312 249.5H648.792V235.5H650.472V247.82L656.072 235.5H658.592V249.5H656.932Z" fill="black"/>
<rect y="291" width="1360" height="97" fill="url(#paint3_linear_35_1120)"/>
<path d="M817.78 374.6L837.67 355.88C856.91 337.81 865.88 331.44 865.88 319.48C865.88 308.56 860.68 302.32 847.42 302.32C833.12 302.32 827.4 309.08 827.4 321.82V323.12H815.83V321.69C815.83 303.49 826.75 292.7 847.55 292.7C868.09 292.7 877.71 302.58 877.71 318.7C877.71 333.65 867.7 341.97 847.29 360.69L831.3 375.38H878.1V385H817.78V374.6Z" fill="black"/>
<rect x="904.5" y="320" width="80" height="39" rx="19.5" stroke="black"/>
<path d="M924.72 349.7V345H925.82C926.82 343.66 927.1 342.06 927.16 336.36L927.2 332.5H935.1V345H936.7V349.7H935.02V346.5H926.38V349.7H924.72ZM928.8 336.32C928.76 339.2 928.68 341.1 928.46 342.48C928.28 343.58 928.04 344.34 927.66 345H933.4V334H928.82L928.8 336.32ZM938.998 346.5V332.5H940.798V338.5H947.398V332.5H949.198V346.5H947.398V340H940.798V346.5H938.998ZM962.037 346.5H960.257V340.64H956.737L954.697 346.5H952.837L954.977 340.42C953.317 340.04 952.457 338.7 952.457 336.56C952.457 333.9 954.037 332.5 956.717 332.5H962.037V346.5ZM956.937 339.14H960.257V334H956.937C955.157 334 954.277 334.78 954.277 336.56C954.277 338.26 955.157 339.14 956.937 339.14Z" fill="black"/>
<rect y="388" width="1360" height="97" fill="url(#paint4_linear_35_1120)"/>
<path d="M1046.57 482V472.38H1074.39V401.14L1047.87 406.34V396.72L1075.43 391H1085.57V472.38H1112.09V482H1046.57Z" fill="black"/>
<rect x="1135.5" y="417" width="133" height="39" rx="19.5" stroke="black"/>
<path d="M1164.94 443.5V431.14L1159.32 443.5H1156.8V429.5H1158.48V441.82L1164.08 429.5H1166.6V443.5H1164.94ZM1174.18 443.5V431H1169.5V429.5H1180.66V431H1175.98V443.5H1174.18ZM1185.3 438.02V436.48H1191.7V438.02H1185.3ZM1197.5 443.5V429.5H1203.08C1205.76 429.5 1207.34 431.22 1207.34 434.12C1207.34 436.98 1205.74 438.7 1202.96 438.7H1199.3V443.5H1197.5ZM1202.76 431H1199.3V437.2H1202.76C1204.6 437.2 1205.48 436.14 1205.48 434.12C1205.48 432.06 1204.6 431 1202.76 431ZM1218.53 443.5V431.14L1212.91 443.5H1210.39V429.5H1212.07V441.82L1217.67 429.5H1220.19V443.5H1218.53ZM1227.77 443.5V431H1223.09V429.5H1234.25V431H1229.57V443.5H1227.77ZM1236.87 443.5V429.5H1239.53L1242.13 438.14L1244.65 429.5H1247.31V443.5H1245.75V430.92L1243.31 439.14H1240.89L1238.43 431.08V443.5H1236.87Z" fill="black"/>
<defs>
<linearGradient id="paint0_linear_35_1120" x1="0" y1="48.5" x2="1360" y2="48.5" gradientUnits="userSpaceOnUse">
<stop stop-color="white"/>
<stop offset="0.2" stop-color="#71DBD4"/>
<stop offset="0.798077" stop-color="white"/>
</linearGradient>
<linearGradient id="paint1_linear_35_1120" x1="0" y1="145.5" x2="1360" y2="145.5" gradientUnits="userSpaceOnUse">
<stop offset="0.1" stop-color="white"/>
<stop offset="0.6" stop-color="#71DBD4"/>
<stop offset="0.9" stop-color="white"/>
</linearGradient>
<linearGradient id="paint2_linear_35_1120" x1="0" y1="242.5" x2="1360" y2="242.5" gradientUnits="userSpaceOnUse">
<stop offset="0.1" stop-color="white"/>
<stop offset="0.4" stop-color="#71DBD4"/>
<stop offset="0.8" stop-color="white"/>
</linearGradient>
<linearGradient id="paint3_linear_35_1120" x1="0" y1="339.5" x2="1360" y2="339.5" gradientUnits="userSpaceOnUse">
<stop offset="0.4" stop-color="white"/>
<stop offset="0.6" stop-color="#71DBD4"/>
<stop offset="1" stop-color="white"/>
</linearGradient>
<linearGradient id="paint4_linear_35_1120" x1="0" y1="436.5" x2="1360" y2="436.5" gradientUnits="userSpaceOnUse">
<stop offset="0.5" stop-color="white"/>
<stop offset="0.798077" stop-color="#71DBD4"/>
<stop offset="1" stop-color="white"/>
</linearGradient>
</defs>
</svg>
