<svg width="70" height="44" viewBox="0 0 70 44" fill="none" xmlns="http://www.w3.org/2000/svg">
<path d="M15.4918 43.9726C6.96721 43.9726 0 37.005 0 28.4189V15.5262C0 6.96758 6.93989 0 15.4918 0V2.82544C8.49726 2.82544 2.81421 8.53117 2.81421 15.5536V28.4464C2.81421 35.4414 8.49726 41.1471 15.4645 41.1471V43.9726H15.4918Z" fill="#333F48"/>
<path d="M54.5083 43.9726V41.1471C61.4755 41.1471 67.1586 35.4414 67.1586 28.4464V15.5536C67.1586 8.5586 61.4755 2.85287 54.5083 2.85287V0C63.0329 0 70.0001 6.96758 70.0001 15.5536V28.4464C70.0001 37.005 63.0602 44 54.5083 44V43.9726Z" fill="#333F48"/>
<path d="M46.2021 36.2098H23.7158V38.9255H46.2021V36.2098Z" fill="#333F48"/>
<path d="M51.3935 11.4663H47.9782V7.51614L46.6394 6.172H23.3061L21.9673 7.51614V20.2717C21.9673 27.3765 27.8143 33.1645 34.9727 33.1645C42.1312 33.1645 47.9782 27.3765 47.9782 20.2717V14.1545H51.3935C53.2787 14.1545 54.8088 15.6907 54.8088 17.5835C54.8088 19.4762 53.2787 21.0124 51.3935 21.0124H50.082V23.7281H51.3935C54.7542 23.7281 57.5137 20.985 57.5137 17.5835C57.5137 14.182 54.7815 11.4388 51.3935 11.4388V11.4663ZM45.3006 15.0598V20.2992C45.3006 25.9226 40.6831 30.5037 34.9727 30.5037C29.2624 30.5037 24.6449 25.9226 24.6449 20.2992V8.86028H45.2733V15.0323L45.3006 15.0598Z" fill="#333F48"/>
<path d="M46.2295 11.2473H23.7705V13.771H46.2295V11.2473Z" fill="#333F48"/>
</svg>
