<svg width="70" height="44" viewBox="0 0 70 44" fill="none" xmlns="http://www.w3.org/2000/svg">
<path d="M15.4889 43.9992C6.95364 43.9992 0 37.0173 0 28.4475V15.5517C0 6.98182 6.95364 0 15.4889 0V2.84749C8.50799 2.84749 2.836 8.54246 2.836 15.5517V28.4475C2.836 35.4567 8.50799 41.1517 15.4889 41.1517V43.9992Z" fill="#333F48"/>
<path d="M54.5112 43.9992V41.1517C61.4921 41.1517 67.1641 35.4567 67.1641 28.4475V15.5517C67.1641 8.54246 61.4921 2.84749 54.5112 2.84749V0C63.0465 0 70.0001 6.98182 70.0001 15.5517V28.4475C70.0001 37.0173 63.0465 43.9992 54.5112 43.9992Z" fill="#333F48"/>
<path d="M24.7605 2.10812H21.1064V8.62448H24.7605V2.10812Z" fill="#333F48"/>
<path d="M22.2514 27.1883H19.5518V43.9995H22.2514V27.1883Z" fill="#333F48"/>
<path d="M26.3149 27.1883H23.6152V43.9995H26.3149V27.1883Z" fill="#333F48"/>
<path d="M57.4288 10.7877H31.0322V13.4983H57.4288V10.7877Z" fill="#333F48"/>
<path d="M57.4291 10.7877H54.7295V29.2416H57.4291V10.7877Z" fill="#333F48"/>
<path d="M44.8305 26.6687H42.1309V44H44.8305V26.6687Z" fill="#333F48"/>
<path d="M57.4287 26.5588H29.7505V29.2694H57.4287V26.5588Z" fill="#333F48"/>
<path d="M49.2754 41.2887H37.686V43.9993H49.2754V41.2887Z" fill="#333F48"/>
<path d="M31.0324 20.0424V18.8925C31.0324 14.4022 27.4056 10.7607 22.9334 10.7607C18.4613 10.7607 14.8345 14.4022 14.8345 18.8925V29.242H17.5341V18.8925C17.5341 15.9081 19.9611 13.4713 22.9334 13.4713C25.9058 13.4713 28.3327 15.9081 28.3327 18.8925V29.242H31.0324V20.0424Z" fill="#333F48"/>
</svg>
