<svg width="70" height="44" viewBox="0 0 70 44" fill="none" xmlns="http://www.w3.org/2000/svg">
<path d="M22.5245 9.69238L34.7957 21.9861L22.5245 34.3072L20.5612 32.3358L28.9055 24.0122V23.5194H9.35352V20.5349H28.9601V20.0421L20.5884 11.7185L22.5518 9.74714L22.5245 9.69238Z" fill="#333F48"/>
<path d="M15.4889 44C6.95365 44 0 37.018 0 28.448V15.552C0 6.98195 6.95365 0 15.4889 0V2.84754C8.50799 2.84754 2.836 8.54263 2.836 15.552V28.448C2.836 35.4574 8.50799 41.1525 15.4889 41.1525V44Z" fill="#333F48"/>
<path d="M54.5112 44V41.1525C61.4921 41.1525 67.1641 35.4574 67.1641 28.448V15.552C67.1641 8.54263 61.4921 2.84754 54.5112 2.84754V0C63.0465 0 70.0001 6.98195 70.0001 15.552V28.448C70.0001 37.018 63.0465 44 54.5112 44Z" fill="#333F48"/>
<path d="M43.276 33.5407H32.4229V36.1965H43.276V33.5407Z" fill="#333F48"/>
<path d="M43.2765 25.2992H40.6313V36.1965H43.2765V25.2992Z" fill="#333F48"/>
<path d="M51.5387 25.2442H40.6855V27.9001H51.5387V25.2442Z" fill="#333F48"/>
<path d="M51.5387 17.0031H48.8936V27.9005H51.5387V17.0031Z" fill="#333F48"/>
<path d="M59.774 16.9758H48.9209V19.6317H59.774V16.9758Z" fill="#333F48"/>
<path d="M59.774 8.70665H57.1289V19.604H59.774V8.70665Z" fill="#333F48"/>
</svg>
