<svg width="84" height="52" viewBox="0 0 84 52" fill="none" xmlns="http://www.w3.org/2000/svg">
<path d="M41.9834 6.8923C48.4299 6.8923 53.6983 12.0697 53.6983 18.4766C53.6983 26.9869 45.8775 35.0441 41.9834 38.5388C37.4349 34.494 30.3013 26.4044 30.3013 18.4766C30.3013 12.102 35.537 6.8923 42.0162 6.8923M41.9834 3.36523C33.5409 3.36523 26.7018 10.1281 26.7018 18.4766C26.7018 31.6789 41.9834 43.1661 41.9834 43.1661C41.9834 43.1661 57.2651 31.6789 57.2651 18.4766C57.2651 10.1281 50.426 3.36523 41.9834 3.36523Z" fill="white"/>
<path d="M41.9834 25.4022C38.0567 25.4022 34.8498 22.2311 34.8498 18.3481C34.8498 14.4651 38.0567 11.2939 41.9834 11.2939C45.9102 11.2939 49.117 14.4651 49.117 18.3481C49.117 22.2311 45.9102 25.4022 41.9834 25.4022ZM41.9834 14.5621C39.8564 14.5621 38.1221 16.2771 38.1221 18.3804C38.1221 20.4837 39.8564 22.1987 41.9834 22.1987C44.1104 22.1987 45.8447 20.4837 45.8447 18.3804C45.8447 16.2771 44.1104 14.5621 41.9834 14.5621Z" fill="white"/>
<path d="M18.5867 52C8.34437 52 0 43.7486 0 33.6204V18.3796C0 8.2514 8.34437 0 18.5867 0V3.36528C10.2096 3.36528 3.4032 10.0958 3.4032 18.3796V33.6204C3.4032 41.9042 10.2096 48.6347 18.5867 48.6347V52Z" fill="white"/>
<path d="M65.4133 52V48.6347C73.7904 48.6347 80.5968 41.9042 80.5968 33.6204V18.3796C80.5968 10.0958 73.7904 3.36528 65.4133 3.36528V0C75.6556 0 84 8.2514 84 18.3796V33.6204C84 43.7486 75.6556 52 65.4133 52Z" fill="white"/>
<path d="M53.0765 43.1338H30.8903V46.3373H53.0765V43.1338Z" fill="white"/>
</svg>
