<svg width="70" height="44" viewBox="0 0 70 44" fill="none" xmlns="http://www.w3.org/2000/svg">
<path d="M34.9862 5.8321C40.3582 5.8321 44.7486 10.2129 44.7486 15.6342C44.7486 22.8352 38.2312 29.6529 34.9862 32.6099C31.1958 29.1874 25.2511 22.3424 25.2511 15.6342C25.2511 10.2403 29.6141 5.8321 35.0134 5.8321M34.9862 2.84766C27.9507 2.84766 22.2515 8.57012 22.2515 15.6342C22.2515 26.8053 34.9862 36.5253 34.9862 36.5253C34.9862 36.5253 47.7209 26.8053 47.7209 15.6342C47.7209 8.57012 42.0216 2.84766 34.9862 2.84766Z" fill="#333F48"/>
<path d="M34.9862 21.4941C31.7139 21.4941 29.0415 18.8108 29.0415 15.5252C29.0415 12.2396 31.7139 9.55634 34.9862 9.55634C38.2585 9.55634 40.9309 12.2396 40.9309 15.5252C40.9309 18.8108 38.2585 21.4941 34.9862 21.4941ZM34.9862 12.3217C33.2137 12.3217 31.7684 13.7729 31.7684 15.5526C31.7684 17.3323 33.2137 18.7835 34.9862 18.7835C36.7587 18.7835 38.204 17.3323 38.204 15.5526C38.204 13.7729 36.7587 12.3217 34.9862 12.3217Z" fill="#333F48"/>
<path d="M15.4889 44C6.95364 44 0 37.018 0 28.448V15.552C0 6.98195 6.95364 0 15.4889 0V2.84754C8.50799 2.84754 2.836 8.54263 2.836 15.552V28.448C2.836 35.4574 8.50799 41.1525 15.4889 41.1525V44Z" fill="#333F48"/>
<path d="M54.5112 44V41.1525C61.4921 41.1525 67.1641 35.4574 67.1641 28.448V15.552C67.1641 8.54263 61.4921 2.84754 54.5112 2.84754V0C63.0465 0 70.0001 6.98195 70.0001 15.552V28.448C70.0001 37.018 63.0465 44 54.5112 44Z" fill="#333F48"/>
<path d="M44.2307 36.498H25.7422V39.2087H44.2307V36.498Z" fill="#333F48"/>
</svg>
