<svg width="669" height="373" viewBox="0 0 669 373" fill="none" xmlns="http://www.w3.org/2000/svg">
<path d="M82.1342 321.308C119.687 321.308 144.915 291.061 144.915 246.049C144.915 201.037 119.687 170.499 82.1342 170.499C54.3554 170.499 34.5078 182.937 24.744 206.466L23.7356 208.89V173.427H0.601135V373H23.7356V282.811L24.744 285.322C34.1878 308.851 54.0354 321.289 82.1342 321.289V321.308ZM39.2879 205.215C48.1209 196.519 60.5414 191.73 74.2514 191.73C87.9615 191.73 99.7808 196.316 108.139 205.002C117.234 214.454 122.043 228.638 122.043 246.049C122.043 263.461 117.234 277.431 108.129 286.834C99.7517 295.492 88.0391 300.067 74.2417 300.067C60.4444 300.067 48.1597 295.249 39.2782 286.514C29.4659 276.849 24.2689 262.86 24.2689 246.049C24.2689 229.239 29.4562 214.881 39.2782 205.215H39.2879Z" fill="#333F48"/>
<path d="M464.959 173.437H339.939V194.677H391.018V318.371H413.881V194.677H464.959V173.437Z" fill="#333F48"/>
<path d="M283.073 183.81H288.464C288.958 183.81 289.414 184.042 289.714 184.459C290.015 184.876 290.112 185.4 289.976 185.894C288.338 191.934 287.504 198.187 287.504 204.469V318.361H309.814V173.437H263.681L206.892 307.019C206.64 307.61 206.077 307.998 205.457 307.998H200.076C199.581 307.998 199.125 307.765 198.825 307.348C198.524 306.931 198.427 306.417 198.563 305.913L198.767 305.167C200.347 299.224 201.152 293.087 201.152 286.922V173.437H178.57V318.361H224.975L281.647 184.779C281.9 184.188 282.462 183.8 283.082 183.8L283.073 183.81Z" fill="#333F48"/>
<path d="M642.268 183.81H647.659C648.154 183.81 648.61 184.042 648.91 184.459C649.211 184.876 649.308 185.4 649.172 185.894C647.524 191.943 646.69 198.187 646.69 204.469V318.361H669V173.436H622.867L566.078 307.018C565.826 307.61 565.263 307.998 564.643 307.998H559.261C558.767 307.998 558.311 307.765 558.011 307.348C557.71 306.931 557.613 306.417 557.749 305.913C559.465 299.476 560.338 292.826 560.338 286.136V175.579L560.105 176.161V173.427H513.972L452.218 318.351H475.246L531.919 184.769C532.171 184.178 532.733 183.79 533.354 183.79H538.745C539.239 183.79 539.695 184.023 539.996 184.44C540.296 184.857 540.393 185.38 540.257 185.875C538.619 191.914 537.785 198.167 537.785 204.449L537.746 318.342H584.151L640.824 184.76C641.076 184.168 641.638 183.781 642.259 183.781L642.268 183.81Z" fill="#333F48"/>
<path d="M359.622 0L298.005 144.925H320.897L382.388 0H359.622Z" fill="#333F48"/>
<path d="M289.821 0H164.802V21.2312H215.88V144.925H238.743V21.2312H289.821V0Z" fill="#333F48"/>
<path d="M104.512 10.3635H109.903C110.398 10.3635 110.854 10.5962 111.154 11.0131C111.455 11.4299 111.552 11.9535 111.416 12.4479C109.777 18.4876 108.944 24.7406 108.944 31.0227V144.915H131.254V0H85.1206L28.3315 133.582C28.0794 134.173 27.5171 134.561 26.8965 134.561H21.5153C21.0208 134.561 20.5651 134.328 20.2645 133.912C19.9639 133.495 19.867 132.981 20.0027 132.477L20.2063 131.73C21.7868 125.788 22.5915 119.651 22.5915 113.485V0H0V144.925H46.4047L103.077 11.3427C103.33 10.7513 103.892 10.3635 104.512 10.3635Z" fill="#333F48"/>
<path d="M499.36 126.66C511.431 115.317 517.065 111.323 517.065 103.819C517.065 96.9651 513.797 93.0485 505.478 93.0485C496.5 93.0485 492.912 97.2851 492.912 105.283V106.097H485.65V105.196C485.65 93.7756 492.505 87.0088 505.556 87.0088C518.606 87.0088 524.482 93.2036 524.482 103.325C524.482 112.709 518.199 117.925 505.391 129.675L495.356 138.894H524.725V144.934H486.872V138.41L499.35 126.66H499.36Z" fill="#333F48"/>
<path d="M530.852 116.374C530.852 95.8987 538.115 87.0088 552.067 87.0088C566.019 87.0088 573.282 95.8987 573.282 116.374C573.282 136.849 565.942 145.739 552.067 145.739C538.192 145.739 530.852 136.926 530.852 116.374ZM539.908 130.567L560.309 95.8115C558.185 93.8532 555.412 93.0388 552.067 93.0388C542.933 93.0388 538.192 99.2337 538.192 116.374C538.192 122.413 538.764 127.057 539.908 130.567ZM565.855 116.374C565.855 110.014 565.205 105.196 563.974 101.609L543.331 136.529C545.532 138.817 548.47 139.796 552.057 139.796C561.113 139.796 565.845 133.601 565.845 116.383L565.855 116.374Z" fill="#333F48"/>
<path d="M592.363 126.66C604.435 115.317 610.068 111.323 610.068 103.819C610.068 96.9651 606.801 93.0485 598.482 93.0485C589.503 93.0485 585.916 97.2851 585.916 105.283V106.097H578.653V105.196C578.653 93.7756 585.508 87.0088 598.559 87.0088C611.61 87.0088 617.486 93.2036 617.486 103.325C617.486 112.709 611.203 117.925 598.394 129.675L588.359 138.894H617.728V144.934H579.875V138.41L592.354 126.66H592.363Z" fill="#333F48"/>
<path d="M645.72 145.739C630.546 145.739 624.021 137.091 624.021 116.209C624.021 97.6922 630.546 86.999 646.379 86.999C658.373 86.999 665.063 92.2244 665.063 102.908H658.044C657.966 96.2962 653.884 93.0388 646.379 93.0388C635.772 93.0388 631.283 100.135 631.283 114.163V116.286C634.133 110.741 639.767 108.288 647.271 108.288C659.75 108.288 666.198 114.735 666.198 127.047C666.198 139.36 658.936 145.729 645.72 145.729V145.739ZM658.771 126.98C658.771 118.662 654.369 114.338 645.798 114.338C637.226 114.338 632.824 118.574 632.824 126.737C632.824 134.9 637.149 139.709 645.72 139.709C654.291 139.709 658.771 135.307 658.771 126.98Z" fill="#333F48"/>
</svg>
