<svg width="900" height="230" viewBox="0 0 900 230" fill="none" xmlns="http://www.w3.org/2000/svg">
<path d="M233.204 69.5068H132.607V86.5891H173.707V186.066H192.104V86.5891H233.204V69.5068Z" fill="white"/>
<path d="M426.173 188.428C456.39 188.428 476.69 164.103 476.69 127.903C476.69 91.7037 456.39 67.1444 426.173 67.1444C403.821 67.1444 387.851 77.1475 379.994 96.0698L379.183 98.019V69.499H360.568V230H379.183V157.468L379.994 159.487C387.593 178.41 403.564 188.413 426.173 188.413V188.428ZM391.697 95.0641C398.805 88.0705 408.799 84.219 419.83 84.219C430.862 84.219 440.373 87.9068 447.098 94.8925C454.416 102.494 458.286 113.901 458.286 127.903C458.286 141.906 454.416 153.141 447.09 160.704C440.349 167.666 430.925 171.346 419.823 171.346C408.721 171.346 398.836 167.471 391.689 160.446C383.794 152.673 379.612 141.423 379.612 127.903C379.612 114.384 383.786 102.837 391.689 95.0641H391.697Z" fill="white"/>
<path d="M302.608 69.5068L253.036 186.066H271.456L320.927 69.5068H302.608Z" fill="white"/>
<path d="M734.212 69.5068H633.623V86.5891H674.723V186.066H693.12V86.5891H734.212V69.5068Z" fill="white"/>
<path d="M587.866 77.8491H592.203C592.601 77.8491 592.968 78.0363 593.21 78.3715C593.452 78.7068 593.53 79.1278 593.42 79.5254C592.102 84.3827 591.431 89.4115 591.431 94.4637V186.058H609.383V69.5068H572.262L526.567 176.936C526.364 177.412 525.912 177.724 525.412 177.724H521.082C520.684 177.724 520.318 177.537 520.076 177.201C519.834 176.866 519.756 176.453 519.865 176.047L520.029 175.447C521.301 170.668 521.948 165.733 521.948 160.774V69.5068H503.778V186.058H541.117L586.719 78.6288C586.922 78.1532 587.374 77.8413 587.873 77.8413L587.866 77.8491Z" fill="white"/>
<path d="M84.0956 77.8491H88.4334C88.8313 77.8491 89.198 78.0363 89.4398 78.3715C89.6817 78.7068 89.7597 79.1278 89.6505 79.5254C88.332 84.3827 87.661 89.4115 87.661 94.4637V186.058H105.613V69.5068H68.492L22.7969 176.944C22.594 177.42 22.1415 177.732 21.6422 177.732H17.3122C16.9143 177.732 16.5476 177.544 16.3058 177.209C16.0639 176.874 15.9859 176.461 16.0951 176.055L16.259 175.455C17.5306 170.676 18.1782 165.74 18.1782 160.782V69.5146H0V186.066H37.3394L82.9409 78.6366C83.1438 78.161 83.5963 77.8491 84.0956 77.8491Z" fill="white"/>
<path d="M876.891 77.8492H881.229C881.627 77.8492 881.994 78.0363 882.235 78.3715C882.477 78.7068 882.555 79.1278 882.446 79.5254C881.12 84.3905 880.449 89.4115 880.449 94.4637V186.058H898.401V69.5068H861.28L815.585 176.936C815.382 177.412 814.929 177.724 814.43 177.724H810.1C809.702 177.724 809.335 177.537 809.093 177.201C808.852 176.866 808.774 176.453 808.883 176.047C810.264 170.871 810.966 165.522 810.966 160.142V71.2298L810.779 71.6976V69.499H773.658L723.968 186.051H742.497L788.099 78.621C788.302 78.1454 788.754 77.8336 789.253 77.8336H793.591C793.989 77.8336 794.356 78.0207 794.598 78.3559C794.84 78.6912 794.918 79.1122 794.808 79.5098C793.49 84.3671 792.819 89.3959 792.819 94.4481L792.788 186.043H830.127L875.729 78.6132C875.931 78.1376 876.384 77.8258 876.883 77.8258L876.891 77.8492Z" fill="white"/>
<path d="M765.754 31.8881C775.468 22.7661 780.001 19.5539 780.001 13.5193C780.001 8.00712 777.371 4.85729 770.677 4.85729C763.453 4.85729 760.566 8.26441 760.566 14.6966V15.3515H754.723V14.6264C754.723 5.44203 760.239 0 770.74 0C781.241 0 785.969 4.98203 785.969 13.1217C785.969 20.6688 780.913 24.8634 770.607 34.3129L762.532 41.7275H786.164V46.5847H755.698V41.3376L765.739 31.8881H765.754Z" fill="white"/>
<path d="M791.095 23.6159C791.095 7.14949 796.938 0 808.165 0C819.392 0 825.235 7.14949 825.235 23.6159C825.235 40.0824 819.329 47.2319 808.165 47.2319C797.001 47.2319 791.095 40.1447 791.095 23.6159ZM798.382 35.0302L814.796 7.07932C813.088 5.50441 810.857 4.84949 808.165 4.84949C800.816 4.84949 797.001 9.83153 797.001 23.6159C797.001 28.4732 797.461 32.2078 798.382 35.0302ZM819.259 23.6159C819.259 18.5014 818.736 14.6264 817.746 11.7417L801.136 39.8251C802.907 41.6651 805.27 42.4525 808.157 42.4525C815.444 42.4525 819.251 37.4705 819.251 23.6237L819.259 23.6159Z" fill="white"/>
<path d="M840.589 31.8881C850.302 22.7661 854.835 19.5539 854.835 13.5193C854.835 8.00712 852.206 4.85729 845.512 4.85729C838.288 4.85729 835.401 8.26441 835.401 14.6966V15.3515H829.557V14.6264C829.557 5.44203 835.073 0 845.575 0C856.076 0 860.804 4.98203 860.804 13.1217C860.804 20.6688 855.748 24.8634 845.442 34.3129L837.367 41.7275H860.999V46.5847H830.533V41.3376L840.574 31.8881H840.589Z" fill="white"/>
<path d="M883.523 47.2397C871.313 47.2397 866.062 40.2851 866.062 23.4912C866.062 8.59966 871.313 0 884.053 0C893.704 0 899.087 4.20237 899.087 12.7942H893.439C893.369 7.47695 890.092 4.85729 884.053 4.85729C875.518 4.85729 871.906 10.5644 871.906 21.8461V23.5536C874.199 19.0939 878.732 17.1214 884.771 17.1214C894.812 17.1214 900 22.3061 900 32.2078C900 42.1095 894.156 47.2319 883.523 47.2319V47.2397ZM894.024 32.1454C894.024 25.4559 890.482 21.9786 883.585 21.9786C876.688 21.9786 873.146 25.3858 873.146 31.9505C873.146 38.5153 876.626 42.3824 883.523 42.3824C890.419 42.3824 894.024 38.8427 894.024 32.1454Z" fill="white"/>
</svg>
