<svg width="70" height="44" viewBox="0 0 70 44" fill="none" xmlns="http://www.w3.org/2000/svg">
<path d="M15.4889 44C6.95364 44 0 37.018 0 28.448V15.552C0 6.98195 6.95364 0 15.4889 0V2.84754C8.50799 2.84754 2.836 8.54263 2.836 15.552V28.448C2.836 35.4574 8.50799 41.1525 15.4889 41.1525V44Z" fill="#333F48"/>
<path d="M54.5112 44V41.1525C61.4921 41.1525 67.1641 35.4574 67.1641 28.448V15.552C67.1641 8.54263 61.4921 2.84754 54.5112 2.84754V0C63.0465 0 70.0001 6.98195 70.0001 15.552V28.448C70.0001 37.018 63.0465 44 54.5112 44Z" fill="#333F48"/>
<path d="M29.3689 1.0683H25.7148V7.58479H29.3689V1.0683Z" fill="#333F48"/>
<path d="M48.5393 1.0683H44.8853V7.58479H48.5393V1.0683Z" fill="#333F48"/>
<path d="M58.9286 19.0019H54.7837V17.8246C54.7837 13.3342 51.1569 9.69263 46.6847 9.69263C42.2126 9.69263 38.5858 13.3342 38.5858 17.8246V19.0019H35.6134V17.8519C35.6134 13.3616 31.9866 9.72001 27.5145 9.72001C23.0423 9.72001 19.4155 13.3616 19.4155 17.8519V28.2017H22.1152V17.8519C22.1152 14.8675 24.5421 12.4306 27.5145 12.4306C30.4868 12.4306 32.9138 14.8675 32.9138 17.8519V28.2017H35.6134V21.7125H58.9013V19.0019H58.9286ZM41.3127 17.8246C41.3127 14.8401 43.7396 12.4033 46.712 12.4033C49.6843 12.4033 52.1113 14.8401 52.1113 17.8246V19.0019H41.3127V17.8246Z" fill="#333F48"/>
<path d="M26.8876 26.121H24.188V42.9325H26.8876V26.121Z" fill="#333F48"/>
<path d="M30.9233 26.121H28.2236V42.9325H30.9233V26.121Z" fill="#333F48"/>
</svg>
