<svg width="835" height="168" viewBox="0 0 835 168" fill="none" xmlns="http://www.w3.org/2000/svg">
<path fill-rule="evenodd" clip-rule="evenodd" d="M5.79035 71.438L70.5476 5.91218C77.3542 -0.970727 88.4879 -0.970727 95.2919 5.91218L160.049 71.438C166.853 78.3235 166.853 89.5889 160.046 96.4744L95.2892 162C88.4853 168.888 77.3489 168.888 70.5424 162L5.78509 96.4771C-1.01886 89.5915 -1.01886 78.3235 5.78509 71.438H5.78772H5.79035ZM12.2416 77.8998L76.9383 12.4371C80.2284 9.10754 85.6189 9.10754 88.9091 12.4371L153.606 77.8998C156.896 81.2294 156.896 86.683 153.603 90.0153L88.9064 155.473C85.6163 158.802 80.2284 158.802 76.9357 155.473L12.2416 90.0153C8.94886 86.683 8.94886 81.2294 12.2416 77.8998Z" fill="#00C996"/>
<path d="M246.268 51.6901C246.268 50.9505 246.387 50.282 246.616 49.7003C246.853 49.0975 247.213 48.5869 247.692 48.171C248.153 47.7657 248.666 47.463 249.232 47.2629C249.795 47.0629 250.401 46.9629 251.051 46.9629C251.664 46.9629 252.249 47.0655 252.796 47.2656C253.344 47.4682 253.844 47.7736 254.302 48.171C255.249 48.9975 255.726 50.1372 255.726 51.5822V87.8682C255.726 91.2846 255.336 94.4615 254.562 97.399C253.788 100.342 252.62 103.045 251.067 105.501C249.519 107.943 247.732 110.086 245.713 111.928C243.692 113.768 241.431 115.305 238.938 116.539C236.451 117.769 233.89 118.693 231.252 119.306C228.61 119.919 225.891 120.23 223.101 120.23C220.308 120.23 217.589 119.922 214.947 119.306C212.315 118.695 209.748 117.771 207.264 116.539C204.766 115.302 202.507 113.768 200.489 111.931C198.467 110.091 196.683 107.948 195.135 105.503C193.582 103.05 192.413 100.352 191.64 97.4042C190.866 94.4668 190.479 91.2899 190.479 87.8734V51.2585C190.479 50.582 190.597 49.974 190.834 49.4371C191.076 48.8869 191.445 48.4211 191.929 48.0394C192.387 47.6814 192.887 47.4077 193.429 47.234C193.966 47.055 194.54 46.9629 195.151 46.9629C195.796 46.9629 196.398 47.0576 196.959 47.2472C197.53 47.4367 198.043 47.7262 198.496 48.1026C198.978 48.5027 199.341 48.9791 199.578 49.5292C199.815 50.0714 199.933 50.6873 199.933 51.3637V87.8708C199.933 90.3371 200.204 92.6191 200.752 94.7169C201.294 96.8041 202.107 98.7176 203.189 100.45C204.276 102.184 205.532 103.711 206.961 105.021C208.387 106.332 209.985 107.43 211.751 108.314C213.528 109.201 215.363 109.872 217.252 110.317C219.14 110.762 221.09 110.983 223.101 110.983C227.115 110.983 230.9 110.094 234.453 108.312C236.219 107.427 237.819 106.33 239.243 105.019C240.673 103.708 241.931 102.179 243.013 100.447C244.097 98.7124 244.91 96.8041 245.453 94.7142C245.995 92.6164 246.268 90.3371 246.268 87.8682V51.6875L246.271 51.6901H246.268Z" fill="#00C996"/>
<path d="M301.413 47.8365C306.133 47.8365 310.486 48.7972 314.476 50.7265C318.467 52.6532 321.462 55.409 323.457 58.986V31.586C323.457 30.1172 323.957 28.9486 324.955 28.0747C325.952 27.2009 327.131 26.7666 328.492 26.7666C329.853 26.7666 331.011 27.2035 331.961 28.0747C332.914 28.9486 333.391 30.1146 333.391 31.586V113.923C333.391 115.394 332.938 116.563 332.032 117.434C331.124 118.305 329.9 118.742 328.358 118.742C325.273 118.742 323.731 117.134 323.731 113.923V108.277C321.554 112.317 318.424 115.3 314.345 117.226C310.262 119.156 305.954 120.119 301.413 120.119C294.975 120.119 289.121 118.674 283.857 115.784C278.598 112.891 274.4 108.69 271.273 103.184C268.144 97.675 266.575 91.0659 266.575 83.3565C266.575 78.1239 267.733 72.7755 270.047 67.3139C272.36 61.8523 276.124 57.2383 281.341 53.477C286.558 49.7131 293.246 47.8312 301.411 47.8312L301.416 47.8365H301.413ZM302.227 110.622C308.307 110.254 313.366 108.19 317.398 104.426C321.436 100.66 323.454 95.6615 323.454 89.4156V78.5398C323.454 72.5728 321.414 67.6166 317.329 63.6685C313.25 59.7203 308.078 57.612 301.819 57.333C295.557 57.333 290.548 58.7333 286.781 61.5338C283.015 64.3344 280.364 67.7061 278.822 71.6542C277.277 75.5997 276.506 79.3636 276.506 82.9433C276.506 89.5498 277.867 94.9219 280.586 99.0516C283.31 103.181 286.642 106.142 290.59 107.932C294.536 109.722 298.413 110.617 302.224 110.617L302.227 110.62V110.622Z" fill="#00C996"/>
<path d="M342.985 54.0541C342.795 53.675 342.703 53.1091 342.703 52.3616C342.703 50.9508 343.264 49.7769 344.377 48.8346C345.49 47.895 346.79 47.4238 348.28 47.4238C349.209 47.4238 350.067 47.6581 350.86 48.1292C351.649 48.6004 352.231 49.3058 352.602 50.2481L379.236 104.008L406.147 50.1086C406.52 49.261 407.1 48.603 407.892 48.1319C408.681 47.6607 409.545 47.4265 410.474 47.4265C411.777 47.4265 412.961 47.8265 414.03 48.6241C415.101 49.4242 415.635 50.4849 415.635 51.801C415.635 52.2695 415.496 52.8801 415.214 53.6329L383.7 116.987C383.237 118.022 382.558 118.819 381.679 119.385C380.794 119.951 379.886 120.233 378.96 120.233C377.194 120.233 375.704 119.201 374.498 117.129L342.985 54.0593L342.982 54.0567L342.985 54.0541Z" fill="#00C996"/>
<path d="M82.492 99.4566C83.637 100.615 84.2081 101.82 84.2081 103.078C84.2081 104.431 83.6844 105.613 82.6342 106.626C81.584 107.642 80.389 108.15 79.0519 108.15C77.8122 108.15 76.5698 107.619 75.3301 106.555L50.6964 82.356C49.1698 81.1005 48.4065 79.7476 48.4065 78.2999C48.4065 76.6549 49.2172 75.1125 50.8385 73.6622L75.6118 49.6102C76.7567 48.3547 78.0938 47.7256 79.6204 47.7256C80.8601 47.7256 81.9604 48.1862 82.9132 49.1022C83.8686 50.0234 84.3476 51.1078 84.3476 52.3607C84.3476 53.5188 83.7739 54.7743 82.6289 56.1272L59.5718 78.1525L82.4841 99.454L82.4894 99.4566H82.492Z" fill="#00C996"/>
<path d="M83.3528 111.496C82.2079 112.657 81.6341 113.863 81.6341 115.116C81.6341 116.471 82.1579 117.653 83.2081 118.664C84.2583 119.68 85.4506 120.188 86.7877 120.188C88.0274 120.188 89.2698 119.656 90.5121 118.59L115.143 94.3957C116.67 93.1376 117.436 91.7873 117.436 90.3397C117.436 88.6972 116.625 87.1522 114.998 85.7019L90.2252 61.6473C89.0802 60.3918 87.7431 59.7627 86.2165 59.7627C84.9768 59.7627 83.8766 60.2233 82.9264 61.1393C81.9683 62.0552 81.4919 63.1423 81.4919 64.3978C81.4919 65.5559 82.0657 66.8141 83.2107 68.1643L106.268 90.1896L83.3555 111.491L83.3581 111.494L83.3528 111.496Z" fill="#00C996"/>
<path d="M530.281 113.845C530.281 120.225 528.823 125.668 525.909 130.179C522.993 134.691 519.005 138.083 513.949 140.363C508.893 142.64 503.221 143.779 496.933 143.779C491.466 143.779 486.66 143.095 482.512 141.729C478.366 140.363 474.515 138.039 470.962 134.757C470.325 134.12 470.006 133.48 470.006 132.843C470.006 132.206 470.233 131.703 470.691 131.34C471.146 130.977 471.694 130.795 472.331 130.795C473.06 130.795 473.652 130.977 474.107 131.34C478.026 134.349 481.648 136.399 484.975 137.491C488.302 138.586 492.287 139.131 496.935 139.131C502.128 139.131 506.89 138.197 511.22 136.33C515.549 134.462 519.011 131.614 521.609 127.787C524.206 123.96 525.504 119.311 525.504 113.845V101.134C523.317 106.33 519.832 110.336 515.047 113.163C510.262 115.987 504.955 117.401 499.123 117.401C492.927 117.401 487.139 116.034 481.764 113.3C476.387 110.565 472.06 106.533 468.777 101.203C465.498 95.8727 463.858 89.5162 463.858 82.1358C463.858 74.208 465.727 67.2145 469.462 61.1554C473.197 55.0937 478.574 50.6087 485.591 47.6897C489.692 45.9578 494.019 45.0918 498.575 45.0918C504.497 45.0918 510.148 46.6868 515.523 49.8769C520.353 53.067 523.68 57.1204 525.501 62.0424V48.5109C525.501 46.8685 526.275 46.0499 527.826 46.0499C528.555 46.0499 529.147 46.2789 529.602 46.7342C530.058 47.1922 530.287 47.7818 530.287 48.5109V113.845H530.281ZM511.283 53.0196C506.727 50.8324 502.123 49.7848 497.478 49.8769C491.008 50.3349 485.404 52.3827 480.664 56.0281C476.563 59.2182 473.533 63.0453 471.575 67.5093C469.617 71.9733 468.635 76.7584 468.635 81.8621C468.635 87.6026 469.82 92.7984 472.188 97.444C474.557 102.092 478.042 105.782 482.646 108.515C487.247 111.249 492.737 112.615 499.117 112.615C504.129 112.615 508.64 111.476 512.649 109.196C516.658 106.92 519.8 103.866 522.08 100.039C524.356 96.2122 525.496 92.0193 525.496 87.4631V75.5714C525.496 70.5599 524.264 66.0932 521.806 62.1767C519.345 58.2575 515.836 55.2043 511.283 53.017V53.0196Z" fill="#0B2027"/>
<path d="M557.344 63.9545C558.803 58.7614 561.856 54.5474 566.504 51.3099C571.152 48.0751 576.345 46.459 582.086 46.459C583.726 46.459 584.547 47.2328 584.547 48.7831C584.547 50.3334 583.726 51.1073 582.086 51.1073C573.884 51.1073 567.71 54.092 563.564 60.059C559.419 66.0286 557.344 73.5221 557.344 82.5449V113.435C557.344 114.164 557.118 114.756 556.663 115.212C556.205 115.667 555.66 115.896 555.02 115.896C554.291 115.896 553.699 115.667 553.244 115.212C552.788 114.756 552.559 114.164 552.559 113.435V48.7831C552.559 48.1462 552.788 47.5987 553.244 47.1433C553.699 46.688 554.291 46.459 555.02 46.459C555.66 46.459 556.205 46.688 556.663 47.1433C557.118 47.5987 557.344 48.1462 557.344 48.7831V63.9545Z" fill="#0B2027"/>
<path d="M626.645 117.401C621.178 117.401 616.121 116.353 611.473 114.258C606.825 112.16 602.816 109.154 599.445 105.235C593.978 98.4916 591.243 90.519 591.243 81.3146C591.243 76.1188 592.246 71.11 594.251 66.2801C596.257 61.4502 599.15 57.281 602.932 53.7724C606.714 50.2638 611.157 47.7818 616.258 46.3236C619.356 45.5024 622.82 45.0918 626.647 45.0918C630.019 45.0918 633.435 45.5024 636.899 46.3236C644.098 48.3293 649.931 52.3379 654.395 58.3523C658.859 64.3666 661.412 71.1547 662.049 78.7194C662.596 89.1082 659.861 97.9468 653.847 105.235C650.475 109.154 646.464 112.16 641.819 114.258C637.173 116.353 632.114 117.401 626.647 117.401H626.645ZM635.394 50.9719C632.477 50.2428 629.516 49.8769 626.51 49.8769C623.686 49.8769 620.817 50.2428 617.898 50.9719C611.247 52.7933 605.962 56.6203 602.042 62.453C598.123 68.2858 596.165 74.7554 596.165 81.8621C596.165 85.597 596.757 89.2214 597.942 92.7299C599.126 96.2359 600.903 99.4049 603.272 102.229C606.096 105.601 609.56 108.196 613.66 110.02C617.761 111.842 622.088 112.755 626.645 112.755C631.293 112.755 635.688 111.844 639.834 110.02C643.979 108.199 647.464 105.601 650.291 102.229C652.66 99.4049 654.437 96.2596 655.621 92.7984C656.806 89.3346 657.398 85.7365 657.398 81.9989C657.398 74.8923 655.416 68.3989 651.452 62.5215C647.488 56.644 642.134 52.7959 635.391 50.9719H635.394Z" fill="#0B2027"/>
<path d="M684.464 87.4627C684.464 92.2005 685.672 96.5066 688.086 100.378C690.502 104.253 693.692 107.282 697.656 109.47C701.62 111.654 705.878 112.749 710.435 112.749C715.172 112.749 719.91 111.449 724.65 108.854C729.388 106.256 733.307 102.545 736.405 97.7147C739.503 92.8848 741.054 87.2811 741.054 80.9035V48.9184C741.054 47.2786 741.827 46.4574 743.375 46.4574C744.104 46.4574 744.696 46.6864 745.152 47.1418C745.607 47.5971 745.836 48.1893 745.836 48.9184V113.707C745.836 114.344 745.607 114.892 745.152 115.347C744.694 115.802 744.104 116.031 743.375 116.031C741.827 116.031 741.054 115.21 741.054 113.57V94.4351C739.688 99.4466 737.363 103.684 734.081 107.145C730.802 110.609 727.109 113.183 723.011 114.868C718.91 116.553 714.901 117.397 710.982 117.397C705.607 117.397 700.525 116.234 695.742 113.91C690.957 111.586 687.085 108.148 684.124 103.59C681.163 99.0334 679.684 93.656 679.684 87.4601V48.9132C679.684 47.2734 680.458 46.4521 682.008 46.4521C682.737 46.4521 683.329 46.6811 683.785 47.1365C684.24 47.5918 684.469 48.1841 684.469 48.9132V87.4601L684.464 87.4627Z" fill="#0B2027"/>
<path d="M813.907 114.937C810.08 116.577 805.25 117.398 799.42 117.398C793.587 117.398 788.281 115.984 783.496 113.16C778.711 110.336 775.226 106.327 773.039 101.132V140.634C773.039 142.274 772.265 143.095 770.714 143.095C769.985 143.095 769.393 142.869 768.938 142.411C768.482 141.955 768.253 141.363 768.253 140.634V48.9189C768.253 48.1898 768.482 47.5975 768.938 47.1422C769.393 46.6868 769.985 46.4579 770.714 46.4579C772.265 46.4579 773.039 47.2791 773.039 48.9189V62.0424C774.86 57.1204 778.187 53.067 783.017 49.8769C788.392 46.6895 794.043 45.0918 799.965 45.0918C806.071 45.0918 811.788 46.6184 817.118 49.6716C822.448 52.7249 826.709 57.0757 829.897 62.7268C833.087 68.3752 834.682 74.8923 834.682 82.2727C834.682 89.5635 832.861 96.1938 829.215 102.161C825.57 108.13 820.466 112.389 813.907 114.942V114.937ZM773.039 87.4631C773.039 92.1114 774.178 96.3017 776.458 100.039C778.734 103.774 781.88 106.759 785.888 108.991C789.897 111.223 794.409 112.431 799.42 112.613C805.798 112.702 811.288 111.381 815.889 108.649C820.492 105.914 823.977 102.224 826.346 97.5783C828.715 92.93 829.9 87.7369 829.9 81.9963C829.9 74.8897 828.305 68.9201 825.114 64.0902C821.924 59.2603 818.031 55.6859 813.428 53.3618C808.827 51.0377 804.429 49.8743 800.239 49.8743C795.498 49.8743 791.058 50.8771 786.912 52.8828C782.767 54.8884 779.419 57.8258 776.866 61.6976C774.315 65.5721 773.039 70.194 773.039 75.5714V87.4631Z" fill="#0B2027"/>
<path d="M436.289 26.9754C436.3 25.8278 437.232 24.9066 438.371 24.9171C439.511 24.9276 440.427 25.8646 440.419 27.0122L436.289 26.9754ZM435.313 142.629L436.289 26.9754L440.419 27.0122L439.443 142.666L435.313 142.629ZM439.443 142.666C439.432 143.814 438.5 144.735 437.361 144.724C436.221 144.714 435.305 143.777 435.313 142.629L439.443 142.666Z" fill="#0B2027"/>
</svg>
